<svg width="39" height="39" viewBox="0 0 39 39" fill="none" xmlns="http://www.w3.org/2000/svg">
<path d="M19.5 39C30.2696 39 39 30.2696 39 19.5C39 8.73045 30.2696 0 19.5 0C8.73045 0 0 8.73045 0 19.5C0 30.2696 8.73045 39 19.5 39Z" fill="#419FD9"/>
<path fill-rule="evenodd" clip-rule="evenodd" d="M23.8351 29.156C25.1976 29.7532 25.7095 28.5028 25.7095 28.5028L29.3158 10.3861C29.2866 9.16611 27.64 9.90345 27.64 9.90345L7.45143 17.8253C7.45143 17.8253 6.48496 18.1666 6.57027 18.7638C6.65559 19.3597 7.4234 19.6437 7.4234 19.6437L12.5056 21.3475C12.5056 21.3475 14.0388 26.3736 14.3508 27.3389C14.6347 28.2761 14.8907 28.3041 14.8907 28.3041C15.1746 28.4175 15.4306 28.2188 15.4306 28.2188L18.7236 25.2378L23.8351 29.156ZM24.715 13.595C24.715 13.595 25.4256 13.1685 25.3975 13.595C25.3975 13.595 25.5109 13.6523 25.1416 14.0496C24.8003 14.3909 16.7651 21.6022 15.6853 22.5687C15.6418 22.5957 15.6059 22.6334 15.5811 22.6782C15.5564 22.723 15.5436 22.7734 15.5439 22.8246L15.2319 25.4937C15.1746 25.7764 14.8054 25.8057 14.7201 25.5498L13.3855 21.1769C13.3565 21.0889 13.3574 20.9938 13.3883 20.9064C13.4192 20.819 13.4782 20.7444 13.5561 20.6943L24.715 13.595Z" fill="white"/>
</svg>
