<svg width="39" height="39" viewBox="0 0 39 39" fill="none" xmlns="http://www.w3.org/2000/svg">
<path d="M19.5 39C30.2696 39 39 30.2696 39 19.5C39 8.73045 30.2696 0 19.5 0C8.73045 0 0 8.73045 0 19.5C0 30.2696 8.73045 39 19.5 39Z" fill="#0DC143"/>
<path d="M27.5242 11.4454C25.4341 9.29305 22.5432 8.12549 19.5926 8.12549C13.3209 8.12549 8.27895 13.2284 8.33989 19.4391C8.33989 21.4062 8.8932 23.3123 9.8158 25.0332L8.2168 30.8747L14.1814 29.3391C15.8413 30.2604 17.6865 30.6906 19.5317 30.6906C25.7412 30.6906 30.7832 25.5877 30.7832 19.377C30.7832 16.3642 29.6144 13.5355 27.5242 11.4454ZM19.5926 28.7845C17.9315 28.7845 16.2715 28.3543 14.8578 27.4926L14.4885 27.3098L10.9224 28.2312L11.845 24.7261L11.5988 24.358C8.8932 19.9925 10.1851 14.2119 14.6116 11.5063C19.0393 8.80068 24.7577 10.0926 27.4621 14.5203C30.1677 18.9468 28.8758 24.6651 24.4493 27.3708C23.0356 28.2921 21.3135 28.7845 19.5926 28.7845ZM25.0039 21.9595L24.3262 21.6524C24.3262 21.6524 23.3427 21.2222 22.7285 20.9138C22.6675 20.9138 22.6054 20.8529 22.5432 20.8529C22.3918 20.8562 22.2437 20.8981 22.113 20.9748C22.113 20.9748 22.052 21.0369 21.1904 22.0205C21.1617 22.077 21.1176 22.1243 21.0634 22.1571C21.0091 22.1898 20.9467 22.2067 20.8833 22.2057H20.8223C20.7297 22.1904 20.6439 22.1475 20.5761 22.0826L20.269 21.9595C19.5926 21.6524 18.9771 21.2831 18.486 20.7907C18.3629 20.6689 18.1776 20.5458 18.0545 20.4227C17.6243 19.9925 17.1941 19.5001 16.887 18.9468L16.826 18.8237C16.7639 18.7627 16.7639 18.7018 16.703 18.5775C16.703 18.4556 16.703 18.3313 16.7639 18.2704C16.7639 18.2704 17.0101 17.9632 17.1941 17.778C17.3172 17.6561 17.3781 17.4709 17.5012 17.3478C17.6243 17.1637 17.6865 16.9176 17.6243 16.7335C17.5634 16.4252 16.8248 14.7652 16.6408 14.3972C16.5189 14.2119 16.3946 14.151 16.2106 14.0888H15.5342C15.4111 14.0888 15.288 14.1498 15.1649 14.1498L15.104 14.2119C14.9809 14.2729 14.8578 14.3972 14.7347 14.4581C14.6128 14.5812 14.5506 14.7043 14.4275 14.8274C13.9977 15.3706 13.7599 16.0409 13.7511 16.7335C13.7511 17.2247 13.873 17.7171 14.0583 18.1473L14.1192 18.3313C14.6712 19.5118 15.4435 20.5762 16.3946 21.4671L16.6408 21.7133C16.8248 21.8986 17.0101 22.0217 17.1332 22.2057C18.4092 23.3147 19.9241 24.1142 21.5597 24.542C21.7437 24.603 21.9899 24.603 22.1751 24.6639H22.7894C23.0965 24.6639 23.4658 24.542 23.712 24.419C23.896 24.2971 24.0191 24.2971 24.1422 24.1728L24.2641 24.0509C24.3884 23.9266 24.5115 23.8656 24.6346 23.7426C24.7565 23.6207 24.8795 23.4964 24.9417 23.3733C25.0636 23.1283 25.1257 22.82 25.1879 22.5128V22.0826C25.1879 22.0826 25.127 22.0217 25.0026 21.9595H25.0039Z" fill="white"/>
</svg>
