<svg width="270" height="107" viewBox="0 0 270 107" fill="none" xmlns="http://www.w3.org/2000/svg">
<path d="M28.512 69.5357C26.496 70.2077 24.672 70.5437 23.04 70.5437C20.592 70.5437 18.672 69.6557 17.28 67.8797C15.936 66.0557 14.832 63.4877 13.968 60.1757C13.776 59.4557 13.104 56.8157 11.952 52.2557C9.696 43.3277 7.872 36.8717 6.48 32.8877C5.088 28.8557 3.048 25.8077 0.36 23.7437C0.936 22.3037 1.872 21.1517 3.168 20.2877C4.512 19.4237 6.072 18.9917 7.848 18.9917C9.624 18.9917 11.088 19.6877 12.24 21.0797C13.392 22.4237 14.304 24.0797 14.976 26.0477C15.696 28.0157 16.32 29.9117 16.848 31.7357C17.376 33.5597 17.928 35.8157 18.504 38.5037C19.128 41.1917 19.608 43.3757 19.944 45.0557C20.328 46.6877 20.904 49.5197 21.672 53.5517C22.488 57.5357 23.088 60.4397 23.472 62.2637C31.536 41.2397 35.568 27.1997 35.568 20.1437C35.568 19.5197 35.544 19.0637 35.496 18.7757C36.216 18.6317 36.96 18.5597 37.728 18.5597C39.648 18.5597 41.208 19.0397 42.408 19.9997C43.656 20.9117 44.28 22.2317 44.28 23.9597C44.28 26.3597 41.904 33.4637 37.152 45.2717C32.448 57.0317 29.568 65.1197 28.512 69.5357ZM100.736 23.0237L100.376 34.9037C100.376 41.4317 100.568 47.2877 100.952 52.4717C101.336 57.6077 102.2 63.1997 103.544 69.2477C102.488 70.1117 100.808 70.5437 98.5044 70.5437C94.0404 70.5437 91.8084 68.5997 91.8084 64.7117C91.8084 61.4957 91.9524 56.5757 92.2404 49.9517C92.5764 43.3277 92.7444 38.1437 92.7444 34.3997C90.1524 38.1437 87.4164 42.7757 84.5364 48.2957C81.7044 53.7677 80.2884 57.1277 80.2884 58.3757C80.2884 59.6237 80.4084 60.5837 80.6484 61.2557C79.5924 61.9277 78.1764 62.2637 76.4004 62.2637C74.6724 62.2637 73.2084 61.7837 72.0084 60.8237C70.8564 59.8637 69.8724 58.5437 69.0564 56.8637C68.2884 55.1837 66.8964 51.8957 64.8804 46.9997C62.9124 42.0557 61.1124 37.8077 59.4804 34.2557C58.2324 41.9837 57.6084 48.8237 57.6084 54.7757C57.6084 60.7277 57.8004 65.5517 58.1844 69.2477C56.6484 69.8237 55.1124 70.1117 53.5764 70.1117C50.5044 70.1117 48.9684 68.5757 48.9684 65.5037C48.9684 63.1517 49.4964 58.4717 50.5524 51.4637C51.6564 44.4077 52.2084 38.4557 52.2084 33.6077C52.2084 28.7597 51.9444 24.2237 51.4164 19.9997C54.0084 19.3277 56.0244 18.9917 57.4644 18.9917C60.1044 18.9917 61.8804 19.9277 62.7924 21.7997C64.2324 24.8237 66.3444 29.6477 69.1284 36.2717C71.9604 42.8477 74.2644 47.9117 76.0404 51.4637C76.5204 50.4557 77.6244 48.2957 79.3524 44.9837C81.1284 41.6237 82.5924 38.7677 83.7444 36.4157C84.9444 34.0157 86.1444 31.1837 87.3444 27.9197C88.5924 24.6077 89.3844 21.7277 89.7204 19.2797C91.4484 18.7997 93.1284 18.5597 94.7604 18.5597C96.4404 18.5597 97.8564 18.9197 99.0084 19.6397C100.16 20.3597 100.736 21.4877 100.736 23.0237Z" fill="#FC4442"/>
<path d="M143.526 60.1757C144.102 61.4717 144.39 62.9357 144.39 64.5677C144.39 66.1997 143.814 67.6157 142.662 68.8157C141.558 69.9677 140.19 70.5437 138.558 70.5437C133.47 70.5437 125.502 70.2557 114.654 69.6797C113.79 69.6317 113.022 69.3677 112.35 68.8877C111.678 68.3597 111.342 67.7117 111.342 66.9437C111.342 64.3997 111.534 60.1037 111.918 54.0557C112.35 48.0077 112.566 42.3677 112.566 37.1357C112.566 31.8557 112.062 25.8077 111.054 18.9917C114.606 19.2797 119.382 19.4237 125.382 19.4237C131.382 19.4237 137.118 18.9917 142.59 18.1277C143.166 19.1837 143.454 20.4557 143.454 21.9437C143.454 23.3837 142.878 24.6797 141.726 25.8317C140.622 26.9357 139.23 27.4877 137.55 27.4877C135.918 27.4877 133.278 27.2477 129.63 26.7677C126.03 26.2877 123.366 26.0477 121.638 26.0477C121.254 30.8957 121.038 35.4557 120.99 39.7277C124.014 40.0157 127.254 40.1597 130.71 40.1597C134.214 40.1597 137.214 39.6557 139.71 38.6477C140.286 39.7037 140.574 40.9757 140.574 42.4637C140.574 43.9037 139.998 45.2237 138.846 46.4237C137.742 47.5757 136.398 48.1517 134.814 48.1517C133.278 48.1517 130.974 47.8637 127.902 47.2877C124.83 46.6637 122.502 46.3517 120.918 46.3517C120.918 53.9357 121.086 59.5037 121.422 63.0557C123.726 63.2477 125.526 63.3437 126.822 63.3437C133.158 63.3437 138.726 62.2877 143.526 60.1757ZM151.283 21.2957C158.195 19.4717 164.219 18.5597 169.355 18.5597C180.347 18.5597 185.843 22.3757 185.843 30.0077C185.843 34.6637 183.659 38.2157 179.291 40.6637C182.219 41.3837 184.643 42.7757 186.563 44.8397C188.483 46.8557 189.443 49.3997 189.443 52.4717C189.443 58.2317 187.307 62.6957 183.035 65.8637C178.763 68.9837 173.483 70.5437 167.195 70.5437C160.907 70.5437 155.459 69.2957 150.851 66.7997C152.339 61.6157 153.083 54.6317 153.083 45.8477C153.083 37.0157 152.483 28.8317 151.283 21.2957ZM162.155 62.7677C164.267 63.4397 166.379 63.7757 168.491 63.7757C171.803 63.7757 174.539 62.9597 176.699 61.3277C178.859 59.6477 179.939 57.2957 179.939 54.2717C179.939 48.5117 176.819 45.6317 170.579 45.6317C167.603 45.6317 164.579 46.2557 161.507 47.5037C161.507 52.3517 161.723 57.4397 162.155 62.7677ZM161.435 41.1677C162.107 41.0237 163.091 40.8557 164.387 40.6637C165.731 40.4717 166.763 40.3037 167.483 40.1597C168.203 40.0157 169.091 39.7997 170.147 39.5117C171.251 39.2237 172.091 38.8877 172.667 38.5037C173.291 38.0717 173.915 37.5437 174.539 36.9197C175.739 35.7197 176.339 33.9677 176.339 31.6637C176.339 27.1997 173.675 24.9677 168.347 24.9677C166.619 24.9677 164.507 25.2557 162.011 25.8317C161.627 35.6717 161.435 40.7837 161.435 41.1677ZM229.097 60.1757C229.673 61.4717 229.961 62.9357 229.961 64.5677C229.961 66.1997 229.385 67.6157 228.233 68.8157C227.129 69.9677 225.761 70.5437 224.129 70.5437C219.041 70.5437 211.073 70.2557 200.225 69.6797C199.361 69.6317 198.593 69.3677 197.921 68.8877C197.249 68.3597 196.913 67.7117 196.913 66.9437C196.913 64.3997 197.105 60.1037 197.489 54.0557C197.921 48.0077 198.137 42.3677 198.137 37.1357C198.137 31.8557 197.633 25.8077 196.625 18.9917C200.177 19.2797 204.953 19.4237 210.953 19.4237C216.953 19.4237 222.689 18.9917 228.161 18.1277C228.737 19.1837 229.025 20.4557 229.025 21.9437C229.025 23.3837 228.449 24.6797 227.297 25.8317C226.193 26.9357 224.801 27.4877 223.121 27.4877C221.489 27.4877 218.849 27.2477 215.201 26.7677C211.601 26.2877 208.937 26.0477 207.209 26.0477C206.825 30.8957 206.609 35.4557 206.561 39.7277C209.585 40.0157 212.825 40.1597 216.281 40.1597C219.785 40.1597 222.785 39.6557 225.281 38.6477C225.857 39.7037 226.145 40.9757 226.145 42.4637C226.145 43.9037 225.569 45.2237 224.417 46.4237C223.313 47.5757 221.969 48.1517 220.385 48.1517C218.849 48.1517 216.545 47.8637 213.473 47.2877C210.401 46.6637 208.073 46.3517 206.489 46.3517C206.489 53.9357 206.657 59.5037 206.993 63.0557C209.297 63.2477 211.097 63.3437 212.393 63.3437C218.729 63.3437 224.297 62.2877 229.097 60.1757ZM236.422 19.8557C237.958 19.2797 239.614 18.9917 241.39 18.9917C245.662 18.9917 247.798 20.9357 247.798 24.8237C247.798 26.9357 247.558 30.4157 247.078 35.2637C246.598 40.0637 246.358 45.0557 246.358 50.2397C246.358 55.4237 246.526 59.7197 246.862 63.1277C248.158 63.2717 249.454 63.3437 250.75 63.3437C257.086 63.3437 262.654 62.2877 267.454 60.1757C268.03 61.4717 268.318 62.9357 268.318 64.5677C268.318 66.1997 267.742 67.6157 266.59 68.8157C265.486 69.9677 264.118 70.5437 262.486 70.5437C259.078 70.5437 251.614 70.2557 240.094 69.6797C239.182 69.6317 238.39 69.3677 237.718 68.8877C237.046 68.3597 236.71 67.7117 236.71 66.9437C236.71 64.3997 236.902 60.1037 237.286 54.0557C237.718 48.0077 237.934 42.4397 237.934 37.3517C237.934 32.2157 237.43 26.3837 236.422 19.8557Z" fill="#2D2D2D"/>
</svg>
