<svg width="47" height="50" viewBox="0 0 47 50" fill="none" xmlns="http://www.w3.org/2000/svg">
<path d="M15.1076 39.4291L8.81794 44.7164C8.59017 44.9079 8.31247 45.0303 8.0175 45.0694C7.72252 45.1084 7.42253 45.0624 7.1528 44.9368C6.88307 44.8112 6.65482 44.6111 6.49489 44.3602C6.33496 44.1093 6.25 43.8179 6.25 43.5204V12.5001C6.25 12.0857 6.41462 11.6883 6.70765 11.3953C7.00067 11.1022 7.3981 10.9376 7.8125 10.9376H42.1875C42.6019 10.9376 42.9993 11.1022 43.2924 11.3953C43.5854 11.6883 43.75 12.0857 43.75 12.5001V37.5001C43.75 37.9145 43.5854 38.312 43.2924 38.605C42.9993 38.898 42.6019 39.0626 42.1875 39.0626H16.113C15.7452 39.0626 15.3892 39.1924 15.1076 39.4291Z" stroke="#FC4442" stroke-width="2" stroke-linecap="round" stroke-linejoin="round"/>
<path d="M15.625 27.3438C16.9194 27.3438 17.9688 26.2944 17.9688 25C17.9688 23.7056 16.9194 22.6562 15.625 22.6562C14.3306 22.6562 13.2812 23.7056 13.2812 25C13.2812 26.2944 14.3306 27.3438 15.625 27.3438Z" fill="#FC4442"/>
<path d="M25 27.3438C26.2944 27.3438 27.3438 26.2944 27.3438 25C27.3438 23.7056 26.2944 22.6562 25 22.6562C23.7056 22.6562 22.6562 23.7056 22.6562 25C22.6562 26.2944 23.7056 27.3438 25 27.3438Z" fill="#FC4442"/>
<path d="M34.375 27.3438C35.6694 27.3438 36.7188 26.2944 36.7188 25C36.7188 23.7056 35.6694 22.6562 34.375 22.6562C33.0806 22.6562 32.0312 23.7056 32.0312 25C32.0312 26.2944 33.0806 27.3438 34.375 27.3438Z" fill="#FC4442"/>
<path d="M15.625 27.3438C16.9194 27.3438 17.9688 26.2944 17.9688 25C17.9688 23.7056 16.9194 22.6562 15.625 22.6562C14.3306 22.6562 13.2812 23.7056 13.2812 25C13.2812 26.2944 14.3306 27.3438 15.625 27.3438Z" fill="#FC4442"/>
<path d="M25 27.3438C26.2944 27.3438 27.3438 26.2944 27.3438 25C27.3438 23.7056 26.2944 22.6562 25 22.6562C23.7056 22.6562 22.6562 23.7056 22.6562 25C22.6562 26.2944 23.7056 27.3438 25 27.3438Z" fill="#FC4442"/>
<path d="M34.375 27.3438C35.6694 27.3438 36.7188 26.2944 36.7188 25C36.7188 23.7056 35.6694 22.6562 34.375 22.6562C33.0806 22.6562 32.0312 23.7056 32.0312 25C32.0312 26.2944 33.0806 27.3438 34.375 27.3438Z" fill="#FC4442"/>
</svg>
