<svg width="50" height="50" viewBox="0 0 50 50" fill="none" xmlns="http://www.w3.org/2000/svg">
<path d="M42.1875 15.625H7.8125C6.94955 15.625 6.25 16.3246 6.25 17.1875V23.4375C6.25 24.3004 6.94955 25 7.8125 25H42.1875C43.0504 25 43.75 24.3004 43.75 23.4375V17.1875C43.75 16.3246 43.0504 15.625 42.1875 15.625Z" stroke="#FC4442" stroke-width="2" stroke-linecap="round" stroke-linejoin="round"/>
<path d="M40.625 25V39.0625C40.625 39.4769 40.4604 39.8743 40.1674 40.1674C39.8743 40.4604 39.4769 40.625 39.0625 40.625H10.9375C10.5231 40.625 10.1257 40.4604 9.83265 40.1674C9.53962 39.8743 9.375 39.4769 9.375 39.0625V25" stroke="#FC4442" stroke-width="2" stroke-linecap="round" stroke-linejoin="round"/>
<path d="M25 15.625V40.625" stroke="#FC4442" stroke-width="2" stroke-linecap="round" stroke-linejoin="round"/>
<path d="M33.8388 13.4153C31.6291 15.625 25 15.625 25 15.625C25 15.625 25 8.99592 27.2097 6.78621C28.089 5.90796 29.281 5.41481 30.5237 5.41516C31.7665 5.41551 32.9582 5.90935 33.8369 6.7881C34.7157 7.66685 35.2095 8.85859 35.2099 10.1013C35.2102 11.3441 34.7171 12.5361 33.8388 13.4153V13.4153Z" stroke="#FC4442" stroke-width="2" stroke-linecap="round" stroke-linejoin="round"/>
<path d="M16.1601 13.4153C18.3698 15.625 24.9989 15.625 24.9989 15.625C24.9989 15.625 24.9989 8.99592 22.7892 6.78621C21.91 5.90796 20.718 5.41481 19.4752 5.41516C18.2325 5.41551 17.0408 5.90935 16.162 6.7881C15.2833 7.66685 14.7894 8.85859 14.7891 10.1013C14.7887 11.3441 15.2819 12.5361 16.1601 13.4153V13.4153Z" stroke="#FC4442" stroke-width="2" stroke-linecap="round" stroke-linejoin="round"/>
</svg>
