<svg width="167" height="144" viewBox="0 0 167 144" fill="none" xmlns="http://www.w3.org/2000/svg">
<g clip-path="url(#clip0_240_1875)">
<path d="M106.148 50.4226C105.34 52.5911 104.284 54.6589 103 56.5849C102.356 57.5537 101.632 58.4673 100.837 59.3163C100.436 59.7397 100.017 60.1457 99.5794 60.5345C99.14 60.9335 98.6622 61.2879 98.1529 61.5926C96.6131 62.5375 94.7866 62.9021 93.002 62.6209C91.2174 62.3397 89.5916 61.4311 88.4169 60.0584C87.6555 59.1764 87.0024 58.2065 86.4716 57.1692C85.9427 56.1423 85.4693 55.0879 85.0536 54.0103C84.8173 53.4803 84.6228 52.9326 84.4718 52.3723C84.3256 51.8113 84.2103 51.2457 84.1 50.6794C83.6627 48.414 83.3319 46.1336 83.0163 43.8518C82.4111 39.2842 81.9532 34.7028 81.5631 30.1126L81.7178 30.3789C81.3858 30.121 81.0977 29.8112 80.8645 29.4614C80.6379 29.1288 80.449 28.7721 80.3012 28.3977C80.0153 27.6579 79.8583 26.8746 79.8372 26.0817C79.8122 25.3036 79.8781 24.5252 80.0336 23.7623C80.1956 23.0171 80.4011 22.282 80.6491 21.5607C80.8642 20.8483 81.0706 20.1271 81.2114 19.4097C81.2459 19.2355 81.2713 19.0596 81.2876 18.8827C81.2949 18.8063 81.2958 18.7295 81.2902 18.6529C81.2765 18.5423 81.2733 18.4306 81.2806 18.3193C81.3216 17.8925 81.4837 17.4862 81.7478 17.1485C81.8832 16.9716 82.0545 16.8253 82.2503 16.7193C82.4599 16.6072 82.6999 16.5653 82.935 16.5997C83.155 16.6356 83.3633 16.7235 83.5425 16.8559C83.7221 16.9767 83.875 17.133 83.9918 17.3151C84.2012 17.6901 84.2536 18.1328 84.1374 18.5462C84.0343 18.8978 83.9541 19.2558 83.8974 19.6178L83.8935 19.5834C84.0082 20.2487 84.076 20.9213 84.0964 21.5961C84.1201 22.2665 84.1016 22.9377 84.0411 23.6058L83.9736 23.6015C83.9938 22.9364 83.9722 22.2707 83.9089 21.6083C83.8491 20.9498 83.7438 20.2962 83.5939 19.6523L83.5897 19.6347L83.59 19.6178C83.6287 19.2346 83.6953 18.8547 83.7892 18.4812C83.8303 18.3221 83.8396 18.1565 83.8166 17.9938C83.7936 17.8311 83.7387 17.6745 83.6552 17.533C83.4702 17.2745 83.1913 17.0989 82.8783 17.0439C82.7304 17.0389 82.584 17.0738 82.4543 17.145C82.3246 17.2161 82.2165 17.3209 82.1413 17.4483C81.9506 17.7148 81.8353 18.0278 81.8075 18.3544C81.8044 18.4309 81.8089 18.5075 81.8209 18.583C81.8337 18.6936 81.8364 18.8051 81.829 18.9161C81.8163 19.1141 81.7931 19.3113 81.7596 19.5068C81.6297 20.2691 81.4392 21.0008 81.2387 21.7328C81.015 22.4396 80.8329 23.159 80.6934 23.8871C80.5556 24.6006 80.4988 25.3273 80.5241 26.0535C80.5462 26.7673 80.6904 27.472 80.9507 28.137C81.0809 28.462 81.2467 28.7716 81.4453 29.0599C81.6319 29.3355 81.8588 29.5816 82.1183 29.79L82.2604 29.896L82.273 30.0565C82.635 34.6385 83.0293 39.2223 83.4885 43.7963C83.7175 46.083 83.9583 48.3715 84.3422 50.6346C84.445 51.1986 84.553 51.7621 84.6903 52.3163C84.8321 52.869 85.017 53.4097 85.2434 53.9335C85.6686 54.9981 86.1539 56.0377 86.6969 57.0473C87.2359 58.0506 87.9068 58.9771 88.6918 59.8022C89.4574 60.6226 90.4017 61.2556 91.4516 61.6519C92.4951 62.036 93.6109 62.1836 94.7184 62.084C95.8234 61.9745 96.8934 61.6354 97.8598 61.0886C98.8155 60.494 99.6879 59.775 100.454 58.9503C101.241 58.1275 101.973 57.2542 102.646 56.3359C103.974 54.4668 105.126 52.4783 106.086 50.3962L106.148 50.4226Z" fill="black"/>
<path d="M90.6812 17.0892V11.2201L84.0092 10.1249V29.1721L90.6681 27.2303L90.6812 27.226V27.2129L90.6201 24.5074L89.6165 24.6994C89.4983 24.6802 89.392 24.6161 89.3198 24.5205V25.8776L85.3881 27.4878V11.7482L89.3198 12.6514V17.6958C89.6952 17.3505 90.1734 17.1375 90.6812 17.0892ZM89.4201 22.714C89.3852 22.6834 89.3503 22.6485 89.3198 22.618V23.1154C89.351 23.0812 89.3846 23.0491 89.4201 23.0194C89.5059 22.9454 89.6074 22.8917 89.7168 22.8623L89.4201 22.714ZM89.3198 20.314V20.8681C89.3729 20.797 89.4312 20.7299 89.4943 20.6674C89.4239 20.556 89.3654 20.4376 89.3197 20.314L89.3198 20.314ZM89.3198 19.1838V19.4238C89.3512 19.3587 89.3958 19.3007 89.4507 19.2536C89.4049 19.2345 89.3611 19.2111 89.3197 19.1838L89.3198 19.1838Z" fill="black"/>
<path d="M89.0972 23.8485C89.1064 23.9865 89.1328 24.1228 89.1757 24.2543L85.3881 25.9605C85.3881 25.9605 85.5103 17.2376 87.4172 16.6485C85.4535 16.6485 85.4579 13.6071 87.4172 13.6071C89.3372 13.6071 89.3677 16.522 87.5263 16.6398C87.8492 16.6529 88.7917 17.0587 89.167 21.1038C89.0178 21.3228 88.9465 21.5856 88.9647 21.8499C88.9829 22.1143 89.0895 22.3648 89.2674 22.5613C89.2805 22.7489 89.2848 22.9453 89.2936 23.1503C89.1422 23.3499 89.072 23.5993 89.0972 23.8485Z" fill="black"/>
<path d="M90.3094 27.3328C91.1601 30.1335 91.8826 32.9519 92.6166 35.7684L93.6968 39.9978C94.0626 41.4065 94.4163 42.8216 94.7581 44.243C93.6007 41.5555 92.6656 38.7776 91.9623 35.9372C91.219 33.1094 90.6668 30.2348 90.3094 27.3328Z" fill="black"/>
<path d="M91.9994 48.2187C92.1306 47.7677 92.3157 47.3342 92.5509 46.9275C92.7753 46.5199 93.0349 46.1326 93.3268 45.7701C93.6182 45.3989 93.9523 45.0632 94.3221 44.7699C94.5114 44.6181 94.7172 44.4881 94.9357 44.3825C95.1548 44.2659 95.4037 44.2173 95.6505 44.243C95.2756 44.4819 94.9492 44.7895 94.6885 45.1497L93.8533 46.1939C93.5696 46.5414 93.287 46.8937 92.9798 47.2312C92.6762 47.5826 92.3486 47.9126 91.9994 48.2187Z" fill="black"/>
<path d="M113.692 38.1746C112.643 40.2476 111.585 42.3135 110.601 44.4105C110.096 45.4528 109.626 46.5101 109.173 47.5702C108.712 48.617 108.33 49.6967 108.03 50.8004L107.961 51.0792L107.692 51.0278C106.439 50.7759 105.207 50.4261 104.009 49.9816C102.814 49.5451 101.649 49.0312 100.522 48.4431C99.3999 47.8461 98.3259 47.1634 97.3092 46.4011C96.3081 45.6083 95.4072 44.6966 94.6265 43.686L94.5724 43.6165L94.6123 43.5262C95.8665 40.6845 97.169 37.865 98.6033 35.1061C99.3193 33.7263 100.047 32.3505 100.843 31.0079C101.243 30.3375 101.656 29.6728 102.107 29.026C102.333 28.7032 102.573 28.3866 102.828 28.0763C103.091 27.7446 103.397 27.4499 103.739 27.2002L103.706 27.2253C104.557 26.5566 105.448 25.941 106.375 25.382C107.291 24.8165 108.236 24.2997 109.206 23.8337C110.174 23.3668 111.168 22.9542 112.182 22.5978C113.194 22.2447 114.228 21.9565 115.278 21.7351L115.294 21.8007C114.275 22.1104 113.274 22.4734 112.294 22.8884C111.313 23.2927 110.355 23.7514 109.425 24.2623C108.493 24.7662 107.576 25.2984 106.694 25.8842C105.814 26.4618 104.964 27.0848 104.148 27.7507L104.114 27.7759C103.562 28.2562 103.085 28.8164 102.699 29.4377C102.268 30.0664 101.856 30.7158 101.461 31.3774C100.67 32.6992 99.9078 34.0427 99.175 35.4079C98.444 36.7715 97.7231 38.1417 97.0123 39.5186C96.3045 40.8963 95.5841 42.2701 94.9039 43.6614L94.8897 43.5017C95.6085 44.5269 96.4689 45.4449 97.4453 46.2286C98.4356 47.0022 99.5049 47.669 100.635 48.2178C101.772 48.7509 102.946 49.2016 104.147 49.5667C105.342 49.9324 106.557 50.2241 107.788 50.44L107.45 50.6674C107.741 49.524 108.137 48.4099 108.633 47.3391C109.099 46.2672 109.612 45.2195 110.146 44.1849C111.231 42.1237 112.377 40.0992 113.634 38.1407L113.692 38.1746Z" fill="black"/>
<path d="M108.389 25.9601C109.057 25.7528 109.759 25.677 110.456 25.7368C111.172 25.7844 111.871 25.9781 112.51 26.3061C113.16 26.6527 113.693 27.1836 114.043 27.8321C114.377 28.4611 114.526 29.1715 114.474 29.8817C114.271 29.2519 113.976 28.6559 113.597 28.1134C113.224 27.6086 112.743 27.1941 112.188 26.9005C111.617 26.6062 111.009 26.3898 110.38 26.257C109.723 26.1163 109.058 26.0172 108.389 25.9601Z" fill="black"/>
<path d="M111.432 5.62164C111.206 6.09118 111.042 6.58768 110.943 7.09898C110.847 7.60548 110.789 8.11842 110.769 8.63355C110.754 9.14683 110.769 9.66057 110.815 10.172C110.864 10.6831 110.947 11.1898 111.038 11.6947L111.06 11.8174L110.984 11.9255C110.731 12.2842 110.485 12.6535 110.244 13.0203C110.003 13.386 109.761 13.7576 109.562 14.1292C109.51 14.2226 109.467 14.3131 109.428 14.4017L109.384 14.5199C109.379 14.5365 109.384 14.5334 109.38 14.5401L109.376 14.5462C109.379 14.536 109.38 14.5251 109.378 14.5145C109.346 14.4294 109.349 14.4868 109.43 14.5162C109.51 14.5559 109.593 14.5876 109.679 14.6109C110.086 14.7153 110.502 14.7797 110.921 14.8032L111.16 14.8208L111.22 15.0481C111.378 15.6569 111.568 16.2566 111.791 16.8445C112.009 17.4357 112.269 18.0106 112.568 18.565C112.857 19.1206 113.221 19.634 113.649 20.0908C114.081 20.5565 114.658 20.8618 115.286 20.9566C114.619 20.9645 113.973 20.7281 113.47 20.2921C112.96 19.8678 112.521 19.365 112.17 18.8026C111.818 18.2483 111.511 17.6666 111.252 17.0631C110.991 16.4598 110.77 15.8403 110.589 15.2084L110.888 15.4533C110.418 15.4334 109.951 15.3665 109.495 15.2535C109.366 15.2196 109.24 15.1727 109.121 15.1136C109.045 15.0774 108.975 15.0316 108.912 14.9771C108.869 14.9404 108.831 14.8978 108.8 14.8504C108.758 14.7949 108.73 14.73 108.719 14.6614C108.71 14.6242 108.704 14.5866 108.701 14.5486L108.71 14.4725C108.716 14.4242 108.726 14.3764 108.738 14.3294C108.762 14.2649 108.786 14.1942 108.812 14.1356C108.864 14.0216 108.919 13.9124 108.976 13.8116C109.203 13.4019 109.453 13.031 109.706 12.6574C109.962 12.2868 110.228 11.9289 110.5 11.5694L110.446 11.8001L110.344 11.0043C110.329 10.7365 110.303 10.4705 110.298 10.2027C110.281 9.66741 110.306 9.13162 110.373 8.60037C110.439 8.06987 110.557 7.5473 110.727 7.04057C110.885 6.53318 111.123 6.05419 111.432 5.62164Z" fill="black"/>
<path d="M110.255 5.05369C110.255 5.05369 113.663 9.59732 116.827 10.1247C116.827 10.1247 118.369 7.00098 119.748 9.11055C121.128 11.2201 119.748 13.2891 118.896 13.492C118.896 13.492 114.758 17.2648 115.002 23.269C115.002 23.269 122.832 24.0398 128.024 21.7679C133.217 19.4961 135.651 17.3865 135.651 17.3865C135.651 17.3865 129.972 11.9503 128.43 8.05578C126.888 4.16121 126.32 -0.139083 121.29 0.428879C116.259 0.996841 113.825 1.72706 110.255 5.05369Z" fill="black"/>
<path d="M111.562 17.0515C111.949 16.9597 112.328 16.8368 112.695 16.6841C112.863 16.605 113.019 16.504 113.159 16.3838C113.305 16.2473 113.433 16.0936 113.541 15.9261C113.55 16.1503 113.486 16.3713 113.359 16.556C113.225 16.7419 113.047 16.8911 112.84 16.9896C112.438 17.175 111.98 17.1972 111.562 17.0515Z" fill="black"/>
<path d="M112.608 11.8083C112.74 11.8038 112.864 11.7484 112.956 11.6538C113.047 11.5592 113.098 11.4328 113.098 11.3012C113.098 11.1697 113.047 11.0433 112.956 10.9487C112.864 10.8541 112.74 10.7987 112.608 10.7941C112.477 10.7987 112.352 10.8541 112.261 10.9487C112.169 11.0433 112.118 11.1697 112.118 11.3012C112.118 11.4328 112.169 11.5592 112.261 11.6538C112.352 11.7484 112.477 11.8038 112.608 11.8083Z" fill="black"/>
<path d="M111.562 10.2465C111.665 10.043 111.831 9.87779 112.034 9.7747C112.227 9.66574 112.433 9.5822 112.648 9.52616C113.071 9.41204 113.516 9.39479 113.947 9.47566C113.552 9.63097 113.147 9.75707 112.733 9.85295C112.533 9.90261 112.337 9.95859 112.141 10.015C111.939 10.0676 111.744 10.1454 111.562 10.2465Z" fill="black"/>
<path d="M119.059 12.4118C119.157 12.4084 119.251 12.3668 119.319 12.2959C119.388 12.2249 119.426 12.1301 119.426 12.0315C119.426 11.9328 119.388 11.838 119.319 11.7671C119.251 11.6961 119.157 11.6546 119.059 11.6512C118.96 11.6546 118.867 11.6961 118.798 11.7671C118.73 11.838 118.691 11.9328 118.691 12.0315C118.691 12.1301 118.73 12.2249 118.798 12.2959C118.867 12.3668 118.96 12.4084 119.059 12.4118Z" fill="black"/>
<path d="M133.037 19.1931C134.189 19.4365 135.303 19.8347 136.348 20.3769C137.407 20.9125 138.397 21.574 139.297 22.3471C140.196 23.1332 140.966 24.0564 141.577 25.0827C142.175 26.1081 142.561 27.2435 142.71 28.4212C142.312 27.342 141.782 26.3161 141.132 25.3667C140.472 24.4437 139.707 23.6008 138.851 22.8552C137.987 22.1094 137.064 21.434 136.092 20.8356C135.106 20.2293 134.086 19.6809 133.037 19.1931Z" fill="black"/>
<path d="M84.8297 53.2903C82.3068 51.7072 79.5707 50.4925 76.7042 49.6833C73.8643 48.8588 70.9059 48.5184 67.9529 48.6765C65.0148 48.8497 62.1447 49.6321 59.5251 50.974C56.9118 52.2875 54.58 54.1587 52.3356 56.0968C47.8931 60.0858 43.7922 64.4395 40.0756 69.1124C36.3412 73.7766 32.8369 78.6336 29.5678 83.6244L29.5956 83.5744C29.4413 84.0489 29.355 84.5428 29.3395 85.0414C29.343 85.2995 29.3235 85.5561 29.3408 85.8141L29.4087 86.588C29.4491 86.8444 29.5067 87.0993 29.5542 87.3548C29.5805 87.4823 29.6009 87.6108 29.6316 87.7373L29.7476 88.1123L29.9781 88.8618C30.0662 89.1081 30.1802 89.3467 30.2796 89.5893L30.5892 90.3134L30.9697 91.0074L31.3491 91.7012C31.481 91.9294 31.6409 92.1427 31.784 92.365L32.2253 93.0251C32.3659 93.2498 32.521 93.4652 32.6896 93.6698L33.6862 94.9137C34.0105 95.3343 34.4055 95.6992 34.7613 96.0947C35.1337 96.4762 35.4745 96.8866 35.8722 97.2444L37.0511 98.3305C37.4439 98.6925 37.8295 99.062 38.256 99.3879L39.5053 100.397C39.9246 100.73 40.3276 101.083 40.773 101.384L43.3795 103.27L43.5511 103.394L43.5986 103.585C43.8587 104.63 44.1146 105.673 44.3571 106.724C44.4748 107.253 44.5925 107.772 44.6922 108.327L44.7269 108.549L44.7401 108.703L44.7425 108.742C44.7456 108.712 44.7444 108.683 44.739 108.654C44.7325 108.617 44.7202 108.581 44.7024 108.547C44.6834 108.512 44.6592 108.484 44.6684 108.493C44.6713 108.491 44.665 108.486 44.6678 108.491L44.718 108.531C44.7456 108.558 44.8045 108.593 44.8459 108.624C45.0529 108.759 45.2673 108.882 45.4882 108.992C46.4239 109.453 47.3969 109.834 48.3969 110.131C49.4042 110.442 50.4282 110.694 51.464 110.889C53.5456 111.278 55.6615 111.452 57.7787 111.41C59.9027 111.365 62.0185 111.131 64.1012 110.713L63.868 111.106L62.3518 105.477L60.8751 99.8361L60.9725 99.8079L62.7413 105.364L64.4706 110.932L64.5688 111.248L64.2374 111.325C63.1831 111.572 62.119 111.781 61.0455 111.939C59.9709 112.089 58.8881 112.182 57.8027 112.229C55.6261 112.32 53.446 112.187 51.2964 111.834C49.1221 111.501 47.0063 110.861 45.0123 109.932C44.7522 109.805 44.4996 109.663 44.2558 109.507C44.1888 109.459 44.1307 109.426 44.0569 109.365L43.951 109.278C43.9022 109.231 43.8561 109.181 43.8129 109.129C43.7893 109.099 43.7692 109.067 43.7533 109.033C43.729 108.984 43.7101 108.933 43.697 108.88C43.6864 108.836 43.6794 108.791 43.676 108.745L43.6738 108.734L43.6682 108.687L43.6387 108.512C43.5436 108.012 43.4198 107.485 43.299 106.968C43.0585 105.928 42.8059 104.886 42.5487 103.848L42.7678 104.163L40.1229 102.241C39.6754 101.93 39.267 101.565 38.8438 101.221L37.583 100.176C37.1536 99.8395 36.7622 99.456 36.3644 99.0805L35.1717 97.9541C34.7701 97.5831 34.4214 97.1552 34.044 96.7585C33.6819 96.3465 33.2839 95.9683 32.9521 95.5285C31.5167 93.845 30.3491 91.9505 29.4902 89.9117C28.6943 87.8588 28.1662 85.5601 28.9651 83.2901L28.9725 83.2691L28.9929 83.24C30.7176 80.7834 32.4959 78.3784 34.3077 75.9942C36.1243 73.6152 37.9436 71.2385 39.8374 68.9205C43.6048 64.2741 47.4214 59.6399 51.8124 55.5172C52.904 54.4808 54.0654 53.5157 55.2605 52.5885C56.4727 51.6669 57.7636 50.8538 59.1183 50.1585C61.8596 48.8001 64.8534 48.0261 67.9096 47.8856C70.9465 47.7677 73.9798 48.1988 76.8637 49.158C77.5834 49.3852 78.2906 49.6485 78.9897 49.929C79.6839 50.2224 80.3706 50.5313 81.0425 50.8695C82.3919 51.5327 83.6791 52.3154 84.889 53.2081L84.8297 53.2903Z" fill="black"/>
<path d="M166.403 34.426C164.942 27.61 153.26 28.4216 153.26 28.4216C125.023 27.61 118.046 35.7874 118.046 35.7874C111.88 40.8842 104.252 62.4056 104.252 62.4056L65.9699 63.2522C63.6432 63.2876 61.389 64.0675 59.5379 65.4776C54.3888 69.4616 55.4055 74.6674 55.4055 74.6674C56.7015 84.2063 61.2092 100.806 61.2092 100.806C68.1473 105.523 122.955 104.039 122.955 104.039C141.819 100.47 150.014 96.4158 150.498 93.3307C150.987 90.2456 158.126 66.394 162.184 54.7082C166.242 43.0267 167.861 41.242 166.403 34.426ZM109.323 75.0121C109.139 77.2943 108.984 79.5794 108.856 81.8674L108.454 88.7314C108.332 91.0223 108.179 93.3089 108.022 95.6041C107.922 93.3089 107.891 91.0122 107.931 88.714C107.952 86.4143 108.048 84.119 108.179 81.8281C108.249 80.6805 108.341 79.5329 108.432 78.3896C108.55 77.2463 108.642 76.0987 108.799 74.9598C109.054 72.6724 109.473 70.4063 110.051 68.1787C109.702 70.4478 109.519 72.7343 109.323 75.0121ZM122.134 41.4601C120.652 43.4051 119.326 45.4638 118.168 47.6172C117.006 49.7733 115.962 51.9903 115.039 54.2587C114.568 55.3932 114.131 56.5409 113.721 57.7016C113.298 58.8536 112.914 60.023 112.552 61.2012C112.766 59.9838 113.088 58.7925 113.407 57.5969C113.756 56.4143 114.139 55.2405 114.555 54.0754C115.391 51.743 116.4 49.4764 117.574 47.2943C118.176 46.2078 118.809 45.143 119.494 44.1089C120.185 43.0764 120.932 42.0829 121.733 41.1329C122.541 40.1916 123.404 39.2984 124.316 38.458C125.247 37.6435 126.243 36.9052 127.292 36.25C125.363 37.7661 123.631 39.5163 122.134 41.4602V41.4601ZM126.319 93.2565L126.31 93.1387L127.929 92.938L127.955 93.1169L126.319 93.2565ZM129.583 92.8725L129.535 92.6325L131.128 92.266L131.193 92.5627L129.583 92.8725ZM132.795 92.2092L132.707 91.8514L134.283 91.4194L134.387 91.8122L132.795 92.2092ZM135.971 91.3932L135.849 90.9613L137.411 90.4856L137.551 90.9482L135.971 91.3932ZM139.122 90.4856L138.969 89.9882L140.518 89.4776L140.693 90.01L139.122 90.4856ZM142.255 89.5213L142.067 88.954L143.608 88.4129L143.813 89.0151L142.255 89.5213ZM146.304 87.946L146.287 88.1642L146.086 88.234L145.366 88.4871L145.148 87.8718L145.659 87.6885L145.698 87.1387L146.361 87.1954L146.304 87.946ZM146.527 85.7249L145.855 85.6376L146.06 84.1583L146.741 84.2674L146.527 85.7249ZM146.994 82.8143L146.304 82.6922L146.579 81.2303L147.273 81.3656L146.994 82.8143ZM147.583 79.9256L146.876 79.7729L147.195 78.3198L147.91 78.4856L147.583 79.9256ZM148.255 77.05L147.531 76.8711L147.884 75.4311L148.617 75.6143L148.255 77.05ZM148.988 74.1831L148.251 73.9911L148.643 72.5554L149.363 72.7518L148.988 74.1831ZM149.752 71.3249L149.04 71.1242L149.451 69.6972L150.149 69.898L149.752 71.3249ZM150.555 68.4754L149.87 68.2747L150.293 66.8522L150.969 67.0529L150.555 68.4754ZM151.392 65.6347L150.729 65.434L151.17 64.0202L151.82 64.2209L151.392 65.6347ZM152.256 62.8071L151.615 62.6063L152.069 61.1925L152.697 61.3933L152.256 62.8071ZM153.142 59.9838L152.527 59.7831L152.998 58.378L153.592 58.5743L153.142 59.9838ZM154.037 57.1605L153.478 56.9772L153.963 55.5765L154.491 55.7511L154.037 57.1605ZM154.944 54.346L154.451 54.1758L154.944 52.7794L155.407 52.9365L154.944 54.346ZM155.874 51.5358L155.446 51.3874L155.948 49.9911L156.345 50.1307L155.874 51.5358ZM156.821 48.73L156.454 48.6034L156.974 47.2158L157.288 47.3249L156.821 48.73ZM157.763 45.9242L157.497 45.8282L158.03 44.4493L158.239 44.5234L157.763 45.9242ZM158.719 43.1227L158.562 43.066L159.099 41.6871L159.208 41.7263L158.719 43.1227Z" fill="black"/>
<path d="M43.0736 103.717C44.493 100.717 46.0899 97.8197 47.7302 94.9475C49.3882 92.0853 51.0908 89.2489 52.9724 86.5154C51.5544 89.5157 49.9574 92.4129 48.3159 95.2845C46.6566 98.1459 44.9539 100.982 43.0736 103.717Z" fill="black"/>
<path d="M85.0534 103.974C85.0422 106.046 84.9046 108.103 84.7371 110.166C84.6416 111.195 84.5331 112.225 84.4117 113.255C84.2736 114.281 84.1188 115.308 83.9475 116.335C83.7754 117.362 83.6458 118.409 83.4755 119.456C83.2976 120.51 82.9656 121.533 82.4904 122.491C82.0027 123.495 81.3809 124.429 80.6421 125.267C80.4519 125.482 80.2326 125.69 80.0228 125.889C79.7968 126.089 79.5598 126.277 79.313 126.45C78.8007 126.823 78.1953 127.047 77.5636 127.097L77.388 126.746C77.6167 126.306 77.7865 125.838 77.893 125.354L78.0527 124.655L78.1983 123.951C78.3912 123.013 78.583 122.068 78.8091 121.123C79.0365 120.169 79.3515 119.239 79.75 118.343C80.1572 117.433 80.577 116.512 80.9032 115.559C81.2358 114.608 81.5559 113.649 81.8636 112.682C82.1901 111.72 82.5062 110.753 82.812 109.779C83.4461 107.838 84.0427 105.877 84.6652 103.915L85.0534 103.974Z" fill="black"/>
<path d="M108.215 104.208L114.635 123.794C115.175 125.418 115.789 127.02 116.402 128.615C117.003 130.206 117.511 131.83 117.924 133.48C118.34 135.125 118.707 136.782 119.059 138.44C119.235 139.267 119.403 140.102 119.587 140.922C119.734 141.745 119.967 142.551 120.283 143.326L120.025 143.622C119.81 143.508 119.604 143.376 119.409 143.228C119.235 143.075 119.049 142.915 118.878 142.75C118.558 142.416 118.256 142.066 117.972 141.702C117.423 140.985 116.923 140.233 116.474 139.45C115.599 137.922 114.836 136.332 114.189 134.694C113.545 133.08 113.038 131.415 112.673 129.717C112.307 128.02 111.991 126.317 111.607 124.634L110.513 119.577L109.53 114.499C108.916 111.106 108.319 107.714 107.833 104.298L108.215 104.208Z" fill="black"/>
<path d="M146.168 97.4004C147.085 100.945 148.128 104.446 149.298 107.904C149.88 109.631 150.475 111.35 151.126 113.046L151.593 114.325L152.09 115.591C152.429 116.432 152.736 117.284 153.105 118.111C153.464 118.941 153.826 119.77 154.204 120.59L155.414 123.013C155.791 123.831 156.213 124.624 156.585 125.439C156.969 126.248 157.28 127.094 157.645 127.911C158.979 131.256 160.403 134.52 161.533 138.169L161.21 138.393C160.467 137.79 159.798 137.123 159.119 136.453C158.792 136.111 158.445 135.778 158.148 135.413C157.847 135.052 157.551 134.685 157.261 134.314C156.97 133.943 156.682 133.569 156.402 133.19C156.116 132.814 155.838 132.431 155.59 132.034C155.082 131.245 154.595 130.443 154.115 129.634C153.651 128.82 153.231 127.982 152.856 127.124C152.663 126.698 152.48 126.267 152.302 125.834C152.124 125.402 151.987 124.954 151.828 124.515L150.962 121.85C150.703 120.953 150.428 120.064 150.149 119.177C149.855 118.296 149.625 117.396 149.363 116.506L148.981 115.169L148.633 113.823C148.177 112.027 147.78 110.219 147.401 108.41C146.66 104.793 146.119 101.137 145.78 97.4605L146.168 97.4004Z" fill="black"/>
<path d="M65.897 102.362C64.6031 105.627 63.2146 108.846 61.8123 112.063L59.6563 116.863L57.4053 121.622C56.6427 123.203 55.934 124.817 55.1905 126.416C54.4435 128.015 53.5695 129.552 52.5767 131.012C51.5767 132.494 50.4773 133.906 49.286 135.238C48.6745 135.92 48.0215 136.564 47.3307 137.165C46.9687 137.472 46.5892 137.758 46.194 138.022C45.9825 138.158 45.7613 138.279 45.5322 138.383L45.3469 138.454L45.1373 138.509C45.0591 138.525 44.9796 138.532 44.8998 138.532C44.8095 138.526 44.7209 138.504 44.6378 138.468L44.755 138.094C44.8717 137.992 44.9715 137.872 45.0507 137.738C45.1629 137.571 45.2649 137.397 45.3561 137.217C45.547 136.845 45.7372 136.465 45.9092 136.071L46.9697 133.709C47.6811 132.132 48.4146 130.563 49.1942 129.016C49.9727 127.466 50.8423 125.963 51.7986 124.515C52.7636 123.065 53.7395 121.615 54.6439 120.123L60.0706 111.156L65.5458 102.186L65.897 102.362Z" fill="black"/>
<path d="M10.127 91.9962C10.127 91.9962 11.8378 96.0985 9.80692 97.8686C6.7906 96.5956 4.22114 94.4542 2.42544 91.7166C2.42544 91.7166 -4.46139 91.6593 7.9815 101.479C7.9815 101.479 23.7631 115.18 24.9667 115.42C27.9896 116.023 27.2116 111.599 27.2116 111.599C27.2116 111.599 16.9481 104.458 15.1986 102.45C15.1986 102.45 16.4311 96.9119 14.8376 94.7271L10.127 91.9962Z" fill="black"/>
<path d="M2.42545 91.7167C2.94595 91.358 3.56058 91.1605 4.19261 91.149C4.82178 91.1108 5.45327 91.1499 6.07293 91.2654C7.30565 91.5091 8.50814 91.8864 9.65914 92.3905L11.3533 93.1729C11.9147 93.4287 12.4861 93.6605 13.0637 93.8729C14.2163 94.2986 15.4049 94.6196 16.6151 94.8321C17.8216 95.0478 19.0507 95.1096 20.2728 95.0161C20.8834 94.9709 21.4899 94.8821 22.0878 94.7504C22.6882 94.6253 23.28 94.4623 23.8598 94.2625C25.0239 93.8553 26.1382 93.3178 27.1817 92.6605C28.236 92.0065 29.2374 91.2707 30.1764 90.4597C28.4239 92.2576 26.3139 93.6681 23.9826 94.6C21.6079 95.4955 19.0367 95.7384 16.5363 95.3034C14.0394 94.909 11.698 93.8645 9.49041 92.7673C8.38246 92.2288 7.21977 91.811 6.02244 91.5212C5.42449 91.3794 4.81284 91.3033 4.19837 91.2943C3.89107 91.2945 3.58455 91.3251 3.28331 91.3858C2.97769 91.4361 2.68568 91.5487 2.42545 91.7167Z" fill="black"/>
<path d="M36.9741 98.9757C35.9853 99.894 35.0268 100.839 34.0986 101.81C33.638 102.298 33.1917 102.799 32.7755 103.32C32.3508 103.823 31.9785 104.368 31.6646 104.946C31.5231 105.237 31.4128 105.541 31.3357 105.855C31.2386 106.187 31.1234 106.513 30.9907 106.832C30.7127 107.461 30.3794 108.064 29.9947 108.634C29.2293 109.763 28.29 110.764 27.2116 111.599C28.1166 110.611 28.9261 109.539 29.6292 108.399C29.9733 107.834 30.2788 107.247 30.5435 106.642C30.6593 106.334 30.7937 106.033 30.8809 105.717C30.9697 105.377 31.0956 105.048 31.2563 104.735C31.9747 103.567 32.8589 102.509 33.8814 101.595C34.858 100.66 35.8908 99.7849 36.9741 98.9757Z" fill="black"/>
<path d="M35.0436 126.86C35.0436 126.86 39.2642 128.254 39.2718 130.948C36.3345 132.393 33.0334 132.933 29.7886 132.497C29.7886 132.497 25.235 137.664 40.8051 134.692C40.8051 134.692 61.4941 131.738 62.4638 130.986C64.8995 129.096 61.0464 126.787 61.0464 126.787C61.0464 126.787 48.9282 129.866 46.2654 129.874C46.2654 129.874 42.887 125.315 40.1924 125.088L35.0436 126.86Z" fill="black"/>
<path d="M29.7886 132.497C29.8584 131.869 30.1117 131.275 30.5169 130.79C30.9001 130.289 31.3431 129.838 31.8362 129.445C32.8277 128.673 33.9004 128.011 35.0352 127.472L36.7359 126.704C37.2969 126.447 37.8463 126.167 38.3851 125.87C39.4616 125.277 40.4826 124.589 41.4357 123.814C42.3889 123.043 43.2405 122.155 43.9702 121.17C44.3359 120.679 44.6661 120.163 44.958 119.625C45.2567 119.089 45.5211 118.535 45.7498 117.966C46.2044 116.82 46.5281 115.626 46.7146 114.406C46.9109 113.181 47.0106 111.943 47.0127 110.702C47.2238 113.204 46.9078 115.722 46.0853 118.094C45.2069 120.475 43.7065 122.578 41.7403 124.182C39.8069 125.811 37.4843 126.896 35.2094 127.846C34.0768 128.331 32.9996 128.936 31.9965 129.651C31.4978 130.01 31.0397 130.422 30.6304 130.881C30.4293 131.113 30.2517 131.365 30.1003 131.632C29.9382 131.896 29.8321 132.19 29.7886 132.497Z" fill="black"/>
<path d="M57.9002 111.142C57.9466 112.491 58.033 113.834 58.1594 115.172C58.2264 115.839 58.3124 116.504 58.4333 117.16C58.5352 117.81 58.7034 118.448 58.9352 119.065C59.0618 119.362 59.2197 119.644 59.4062 119.908C59.5934 120.199 59.7646 120.5 59.9189 120.809C60.2121 121.431 60.4495 122.078 60.6283 122.742C60.9803 124.059 61.1214 125.425 61.0465 126.787C60.8925 125.456 60.6128 124.142 60.2112 122.864C60.0101 122.234 59.7665 121.619 59.4821 121.022C59.3257 120.733 59.1862 120.434 59.0044 120.162C58.8055 119.872 58.6391 119.561 58.508 119.235C58.0956 117.927 57.8753 116.566 57.8542 115.195C57.787 113.844 57.8023 112.491 57.9002 111.142Z" fill="black"/>
<path d="M90.6812 27.226L90.5605 24.5088L90.6312 24.566L89.6319 24.78C89.6238 24.7817 89.6154 24.782 89.6072 24.7809L89.6025 24.7802C89.4629 24.7591 89.3368 24.685 89.2505 24.5733L89.2544 24.5781C89.0972 24.3646 89.0087 24.1083 89.0006 23.8433C88.9737 23.5731 89.0489 23.3026 89.2113 23.085L89.2061 23.092L89.2318 23.0569L89.2377 23.0488L89.2403 23.0459C89.3006 22.9799 89.3681 22.9209 89.4415 22.8698C89.5187 22.8164 89.6047 22.7769 89.6955 22.7529L89.6669 22.962L89.3684 22.8173C89.3604 22.8135 89.3529 22.8086 89.3461 22.8028L89.344 22.8009C89.1825 22.6639 89.0497 22.4964 88.9533 22.3079C88.8586 22.1109 88.8189 21.8919 88.8382 21.6742C88.8601 21.462 88.925 21.2564 89.0289 21.07C89.0795 20.9794 89.1374 20.8948 89.1918 20.807C89.2535 20.723 89.3282 20.6447 89.3967 20.5642L89.3735 20.7423C89.2284 20.5066 89.1295 20.2454 89.0821 19.9728C89.0619 19.8259 89.0724 19.6764 89.113 19.5338C89.1568 19.3802 89.2429 19.2421 89.3615 19.135L89.3973 19.392C89.2387 19.3224 89.0948 19.2231 88.9734 19.0995C88.8444 18.9682 88.762 18.7982 88.7389 18.6155C88.7331 18.4434 88.7642 18.272 88.8301 18.1129C88.896 17.9537 88.9951 17.8105 89.1208 17.6928C89.562 17.2166 90.1742 16.9351 90.8228 16.9099C91.1331 16.8834 91.4452 16.886 91.755 16.9178C91.9092 16.933 92.0622 16.9564 92.2147 16.9849L92.4438 17.0341C92.5342 17.0584 92.6198 17.0976 92.6972 17.1501C92.8523 17.2479 92.9752 17.3892 93.0505 17.5564C93.1186 17.7253 93.1382 17.9097 93.1074 18.0891C93.0329 18.4074 92.8897 18.7054 92.6877 18.9623L92.6272 18.7276C92.8236 18.825 93.0059 18.9485 93.1693 19.0947C93.3407 19.2429 93.478 19.4263 93.572 19.6325C93.6672 19.8516 93.6823 20.0973 93.6147 20.3265C93.5498 20.5424 93.4405 20.7424 93.2939 20.9137L93.2807 20.7126C93.4784 20.9053 93.652 21.1213 93.7975 21.3559C93.9531 21.5931 94.0555 21.8613 94.0975 22.1419C94.1352 22.4377 94.0588 22.7368 93.8837 22.9782C93.7115 23.2029 93.4903 23.3854 93.2369 23.5117L93.291 23.3643C93.4173 23.7243 93.4885 24.1012 93.5023 24.4824C93.5232 24.8674 93.4489 25.2518 93.2859 25.6013C93.1167 25.9523 92.8289 26.2324 92.4734 26.3921C92.3038 26.4757 92.1256 26.5406 91.9421 26.586C91.759 26.6254 91.5724 26.6448 91.3887 26.6748L91.4037 26.6706C91.1349 26.8084 90.8964 26.9985 90.7019 27.2296L90.7 27.2317C90.7 27.2317 90.6991 27.2307 90.6943 27.2303L90.6885 27.2467C90.4342 27.5495 90.2646 27.9142 90.1968 28.3038C90.2483 27.9071 90.4039 27.5311 90.6477 27.214L90.642 27.2303C90.6464 27.217 90.6533 27.2048 90.6623 27.1941L90.6605 27.1961C90.8516 26.9475 91.0907 26.7399 91.3637 26.5857L91.3701 26.5833L91.3789 26.5815C91.5569 26.5439 91.7375 26.5172 91.9118 26.4716C92.0838 26.421 92.2499 26.352 92.4071 26.2659C92.723 26.1063 92.9755 25.8443 93.1232 25.5226C93.264 25.1982 93.3228 24.8441 93.2944 24.4916C93.2724 24.1357 93.1975 23.7851 93.0721 23.4513C93.0623 23.4255 93.0617 23.3971 93.0705 23.3709C93.0793 23.3447 93.0968 23.3223 93.1202 23.3076L93.1263 23.3038C93.3419 23.1899 93.5291 23.029 93.674 22.8329C93.8069 22.6422 93.861 22.4075 93.8251 22.1778C93.7104 21.6953 93.4514 21.2592 93.0825 20.9277C93.0566 20.9021 93.0407 20.868 93.0378 20.8316C93.0349 20.7953 93.0452 20.7591 93.0668 20.7298L93.0693 20.7265C93.187 20.587 93.2748 20.4249 93.3273 20.2501C93.3764 20.0851 93.3645 19.908 93.2937 19.7511C93.1163 19.4238 92.8363 19.164 92.4967 19.0116L92.4945 19.0105C92.4759 19.0012 92.4593 18.9882 92.4456 18.9724C92.432 18.9567 92.4216 18.9384 92.415 18.9186C92.4085 18.8988 92.4059 18.8779 92.4074 18.8571C92.4089 18.8363 92.4145 18.816 92.4239 18.7974L92.4362 18.7768C92.6058 18.5584 92.7269 18.3065 92.7917 18.0376C92.8156 17.9201 92.8023 17.798 92.7537 17.6884C92.7051 17.5787 92.6236 17.4869 92.5205 17.4256C92.4732 17.3937 92.4212 17.3696 92.3663 17.354L92.1541 17.3104C92.0109 17.2842 91.8659 17.2652 91.721 17.2495C91.4323 17.2175 91.1413 17.2125 90.8518 17.2347C90.5704 17.2412 90.2932 17.3034 90.036 17.4176C89.7788 17.5318 89.5468 17.6957 89.3532 17.9C89.2566 17.9855 89.1789 18.0903 89.1251 18.2076C89.0713 18.3249 89.0426 18.4521 89.0409 18.5812C89.0673 18.7018 89.1235 18.8138 89.2044 18.9071C89.2853 19.0004 89.3882 19.0719 89.5038 19.1152L89.5092 19.1177C89.5271 19.1261 89.5433 19.1379 89.5567 19.1525C89.57 19.1671 89.5804 19.1842 89.5872 19.2028C89.594 19.2215 89.597 19.2412 89.5961 19.261C89.5953 19.2808 89.5905 19.3003 89.5821 19.3182C89.5722 19.3392 89.5577 19.3577 89.5397 19.3722C89.4725 19.4419 89.4225 19.5264 89.3939 19.6189C89.3641 19.7226 89.3561 19.8313 89.3704 19.9382C89.3849 20.0532 89.4147 20.1658 89.4589 20.273L89.615 20.5925C89.6287 20.6207 89.6341 20.6522 89.6304 20.6833C89.6267 20.7145 89.6141 20.7439 89.5941 20.768L89.5918 20.7708C89.5352 20.839 89.4736 20.9013 89.4193 20.973C89.3699 21.0497 89.3154 21.1246 89.2691 21.2027C89.1786 21.3551 89.12 21.5243 89.0969 21.7C89.0824 21.8754 89.1113 22.0516 89.1809 22.2133C89.2505 22.3749 89.3588 22.517 89.4962 22.627L89.4718 22.6106L89.7666 22.7626C89.793 22.7762 89.8129 22.7998 89.822 22.8281C89.831 22.8563 89.8285 22.8871 89.8149 22.9135C89.807 22.9281 89.796 22.9409 89.7828 22.951C89.7695 22.9611 89.7543 22.9682 89.738 22.9718C89.6748 22.989 89.6148 23.016 89.5599 23.0518C89.5018 23.0904 89.448 23.1351 89.3992 23.185L89.4076 23.1741L89.381 23.2086L89.3757 23.2158C89.2402 23.3906 89.1747 23.6097 89.1922 23.8302C89.1931 24.0554 89.2601 24.2755 89.385 24.4629L89.389 24.4678C89.4474 24.5468 89.5337 24.6007 89.6304 24.6186L89.6011 24.6189L90.6088 24.4489L90.6114 24.4485C90.6267 24.4459 90.6424 24.4495 90.6551 24.4585C90.6677 24.4675 90.6763 24.4811 90.6789 24.4964L90.6797 24.5062L90.6812 27.226Z" fill="black"/>
<path d="M92.0349 25.282C91.9616 25.0124 91.8009 24.7748 91.5781 24.6063C91.4713 24.5405 91.3457 24.512 91.2209 24.5253C91.0861 24.544 90.9534 24.5756 90.8247 24.6198C90.5397 24.709 90.249 24.7792 89.9547 24.83C89.7946 24.855 89.6315 24.8534 89.4719 24.8252C89.3757 24.8104 89.2856 24.7685 89.2122 24.7046C89.1387 24.6406 89.0849 24.5572 89.057 24.4639L89.0622 24.4775C89.0073 24.3232 88.974 24.162 88.9632 23.9986C88.9511 23.8374 88.9657 23.6753 89.0064 23.5188C89.0446 23.362 89.1163 23.2154 89.2164 23.0889C89.3166 22.9652 89.4362 22.8586 89.5706 22.7733L89.5762 22.8693C89.3716 22.7714 89.1923 22.6278 89.052 22.4496C88.9078 22.2626 88.8291 22.0335 88.8278 21.7973C88.8325 21.5632 88.8912 21.3332 88.9991 21.1254C89.0565 21.0281 89.1103 20.9266 89.1724 20.8322L89.3756 20.5637L89.3918 20.7848C89.2151 20.6313 89.0813 20.4346 89.0034 20.2139C88.9238 19.9793 88.9382 19.7231 89.0435 19.4989C89.1422 19.2789 89.3111 19.0978 89.5237 18.984C89.7189 18.8888 89.9256 18.8194 90.1387 18.7775C90.54 18.677 90.9506 18.6182 91.364 18.6018C91.7817 18.5694 92.1998 18.6579 92.5686 18.8568C92.5705 18.858 92.5721 18.8595 92.5734 18.8613C92.5746 18.8631 92.5755 18.8651 92.576 18.8672C92.5765 18.8694 92.5766 18.8716 92.5762 18.8738C92.5758 18.8759 92.575 18.878 92.5739 18.8799C92.5716 18.8831 92.5684 18.8855 92.5647 18.8867C92.5609 18.8879 92.5569 18.8878 92.5532 18.8864C92.1735 18.7716 91.7717 18.7494 91.3816 18.8217C90.9893 18.88 90.6023 18.9698 90.2245 19.0904C90.0428 19.1377 89.8666 19.204 89.6988 19.288C89.554 19.3708 89.4382 19.4961 89.3672 19.647C89.3036 19.8016 89.2913 19.9725 89.332 20.1346C89.3728 20.2967 89.4644 20.4415 89.5936 20.5476L89.5998 20.5536C89.6285 20.5815 89.6456 20.6193 89.6474 20.6593C89.6493 20.6993 89.6359 20.7385 89.6098 20.7689C89.4739 20.9214 89.3495 21.0839 89.2378 21.2549C89.1355 21.4239 89.0675 21.6113 89.0376 21.8065C89.0166 22.0029 89.0629 22.2006 89.1691 22.3672C89.2812 22.5391 89.437 22.6782 89.6204 22.7703L89.6228 22.7716C89.6357 22.7785 89.6452 22.7903 89.6494 22.8042C89.6535 22.8182 89.652 22.8332 89.6451 22.8461C89.6406 22.8544 89.634 22.8614 89.626 22.8664C89.4986 22.9377 89.3879 23.0353 89.3011 23.1527C89.2147 23.2684 89.1583 23.4037 89.1369 23.5465C89.1048 23.8315 89.1558 24.1198 89.2838 24.3765L89.2852 24.3799L89.289 24.3902C89.3578 24.5749 89.6435 24.5675 89.9156 24.5329C90.1988 24.492 90.4797 24.436 90.757 24.3651C90.9063 24.3185 91.0616 24.2937 91.2181 24.2914C91.3877 24.2939 91.5519 24.352 91.6854 24.4566C91.8004 24.561 91.8935 24.6874 91.9591 24.8282C92.0248 24.969 92.0618 25.1214 92.068 25.2767C92.0684 25.2811 92.0671 25.2855 92.0643 25.2889C92.0615 25.2923 92.0575 25.2945 92.0531 25.295C92.049 25.2951 92.0451 25.2939 92.0418 25.2915C92.0385 25.2892 92.0361 25.2859 92.0349 25.282Z" fill="black"/>
<path d="M89.5586 22.6934C89.8809 22.5778 90.2104 22.4831 90.545 22.4099C90.7128 22.3754 90.8853 22.3583 91.0544 22.3344C91.2265 22.3223 91.3991 22.3223 91.5711 22.3346C91.9174 22.3488 92.2544 22.4511 92.5502 22.6317C92.8403 22.8131 93.0621 23.0856 93.181 23.4064C93.0403 23.1046 92.8036 22.8579 92.5079 22.7049C92.2159 22.5584 91.8913 22.4891 91.565 22.5035C91.4027 22.5057 91.2408 22.5193 91.0805 22.5441C90.9211 22.581 90.7611 22.6101 90.6048 22.6563C90.2922 22.7531 89.9862 22.8697 89.6885 23.0055L89.6814 23.0086C89.6404 23.0261 89.5941 23.0267 89.5527 23.0102C89.5112 22.9938 89.4779 22.9617 89.46 22.9208C89.4421 22.88 89.441 22.8337 89.457 22.7921C89.473 22.7504 89.5048 22.7168 89.5455 22.6985L89.5586 22.6934Z" fill="black"/>
<path d="M93.1797 20.8201C92.9581 20.5788 92.6713 20.4068 92.354 20.325C92.0418 20.2419 91.7169 20.218 91.3959 20.2543C91.0757 20.2858 90.7598 20.3522 90.4541 20.4525C90.3027 20.5092 90.1501 20.5599 90.001 20.6206L89.5599 20.8192L89.5498 20.8237C89.5093 20.8418 89.4634 20.8431 89.422 20.8273C89.3806 20.8116 89.3471 20.78 89.3289 20.7396C89.3107 20.6992 89.3093 20.6533 89.325 20.6118C89.3406 20.5704 89.3721 20.5369 89.4124 20.5186L89.4256 20.5133L89.9012 20.346C90.0616 20.2959 90.2259 20.2561 90.3873 20.2111C90.7155 20.1333 91.0513 20.0919 91.3885 20.0875C91.726 20.0781 92.0622 20.1318 92.3799 20.2456C92.6964 20.3559 92.9741 20.5555 93.1797 20.8201Z" fill="black"/>
<path d="M91.6617 8.32624C92.2138 7.94414 92.7907 7.59926 93.3887 7.29389C93.9777 6.98069 94.5824 6.70378 95.1901 6.43389C95.8029 6.17562 96.419 5.92514 97.0507 5.71079C97.6829 5.48453 98.3296 5.30115 98.9865 5.16188C98.4348 5.54472 97.858 5.88992 97.2599 6.19515C96.6708 6.50819 96.0661 6.78512 95.4581 7.05423C94.845 7.31174 94.2289 7.56222 93.5971 7.77641C92.9649 8.00248 92.3183 8.18616 91.6617 8.32624Z" fill="black"/>
<path d="M93.9793 11.1255C94.5232 10.994 95.0767 10.9061 95.6345 10.8627C96.1862 10.8087 96.7379 10.7943 97.2896 10.7876C97.8413 10.7935 98.3931 10.8079 98.9448 10.8617C99.5027 10.905 100.056 10.9932 100.6 11.1255C100.056 11.2577 99.5027 11.346 98.9448 11.3893C98.3931 11.443 97.8413 11.4574 97.2896 11.4633C96.7379 11.4566 96.1862 11.4422 95.6345 11.3883C95.0766 11.3448 94.5232 11.2569 93.9793 11.1255Z" fill="black"/>
<path d="M93.9793 14.7361C94.4188 14.7117 94.8596 14.7316 95.2951 14.7956C95.723 14.8503 96.1472 14.9309 96.5653 15.0371C96.984 15.1404 97.3961 15.2694 97.799 15.4234C98.2131 15.5727 98.611 15.7638 98.9865 15.9937C98.547 16.0189 98.106 15.9993 97.6704 15.9351C97.2426 15.8805 96.8185 15.7995 96.4006 15.6927C95.9819 15.5887 95.57 15.4593 95.1671 15.3054C94.7531 15.1559 94.3552 14.9652 93.9793 14.7361Z" fill="black"/>
<path d="M30.9081 84.49C31.0777 84.4841 31.2385 84.4126 31.3565 84.2905C31.4744 84.1683 31.5403 84.0052 31.5403 83.8354C31.5403 83.6657 31.4744 83.5025 31.3565 83.3804C31.2385 83.2583 31.0777 83.1868 30.9081 83.1809C30.7384 83.1868 30.5776 83.2583 30.4597 83.3804C30.3417 83.5025 30.2758 83.6657 30.2758 83.8354C30.2758 84.0052 30.3417 84.1683 30.4597 84.2905C30.5776 84.4126 30.7384 84.4841 30.9081 84.49Z" fill="black"/>
<path d="M31.6412 88.4696C31.8108 88.4637 31.9716 88.3922 32.0896 88.2701C32.2075 88.148 32.2734 87.9848 32.2734 87.8151C32.2734 87.6453 32.2075 87.4822 32.0896 87.36C31.9716 87.2379 31.8108 87.1664 31.6412 87.1605C31.4715 87.1664 31.3107 87.2379 31.1928 87.36C31.0748 87.4822 31.0089 87.6453 31.0089 87.8151C31.0089 87.9848 31.0748 88.148 31.1928 88.2701C31.3107 88.3922 31.4715 88.4637 31.6412 88.4696Z" fill="black"/>
<path d="M33.9452 92.4492C34.1148 92.4434 34.2756 92.3718 34.3935 92.2497C34.5115 92.1276 34.5774 91.9645 34.5774 91.7947C34.5774 91.6249 34.5115 91.4618 34.3935 91.3397C34.2756 91.2176 34.1148 91.146 33.9452 91.1402C33.7755 91.146 33.6147 91.2176 33.4968 91.3397C33.3788 91.4618 33.3129 91.6249 33.3129 91.7947C33.3129 91.9645 33.3788 92.1276 33.4968 92.2497C33.6147 92.3718 33.7755 92.4434 33.9452 92.4492Z" fill="black"/>
<path d="M37.1917 96.3242C37.3614 96.3183 37.5221 96.2467 37.6401 96.1246C37.758 96.0025 37.824 95.8394 37.824 95.6696C37.824 95.4998 37.758 95.3367 37.6401 95.2146C37.5221 95.0925 37.3614 95.0209 37.1917 95.0151C37.022 95.0209 36.8613 95.0925 36.7433 95.2146C36.6254 95.3367 36.5594 95.4998 36.5594 95.6696C36.5594 95.8394 36.6254 96.0025 36.7433 96.1246C36.8613 96.2467 37.022 96.3183 37.1917 96.3242Z" fill="black"/>
<path d="M40.2288 98.9423C40.3985 98.9365 40.5593 98.8649 40.6772 98.7428C40.7952 98.6207 40.8611 98.4576 40.8611 98.2878C40.8611 98.118 40.7952 97.9549 40.6772 97.8328C40.5593 97.7107 40.3985 97.6391 40.2288 97.6332C40.0591 97.6391 39.8984 97.7107 39.7804 97.8328C39.6625 97.9549 39.5966 98.118 39.5966 98.2878C39.5966 98.4576 39.6625 98.6207 39.7804 98.7428C39.8984 98.8649 40.0591 98.9365 40.2288 98.9423Z" fill="black"/>
<path d="M43.3706 101.351C43.5403 101.345 43.701 101.274 43.819 101.152C43.9369 101.029 44.0029 100.866 44.0029 100.697C44.0029 100.527 43.9369 100.364 43.819 100.242C43.701 100.119 43.5403 100.048 43.3706 100.042C43.2009 100.048 43.0402 100.119 42.9222 100.242C42.8043 100.364 42.7383 100.527 42.7383 100.697C42.7383 100.866 42.8043 101.029 42.9222 101.152C43.0402 101.274 43.2009 101.345 43.3706 101.351Z" fill="black"/>
<path d="M45.4652 105.435C45.6349 105.43 45.7956 105.358 45.9136 105.236C46.0315 105.114 46.0974 104.951 46.0974 104.781C46.0974 104.611 46.0315 104.448 45.9136 104.326C45.7956 104.204 45.6349 104.132 45.4652 104.126C45.2955 104.132 45.1347 104.204 45.0168 104.326C44.8988 104.448 44.8329 104.611 44.8329 104.781C44.8329 104.951 44.8988 105.114 45.0168 105.236C45.1347 105.358 45.2955 105.43 45.4652 105.435Z" fill="black"/>
<path d="M47.0361 108.158C47.2058 108.152 47.3665 108.081 47.4845 107.959C47.6024 107.837 47.6684 107.674 47.6684 107.504C47.6684 107.334 47.6024 107.171 47.4845 107.049C47.3665 106.927 47.2058 106.855 47.0361 106.849C46.8664 106.855 46.7057 106.927 46.5877 107.049C46.4698 107.171 46.4038 107.334 46.4038 107.504C46.4038 107.674 46.4698 107.837 46.5877 107.959C46.7057 108.081 46.8664 108.152 47.0361 108.158Z" fill="black"/>
<path d="M50.4921 109.625C50.6617 109.619 50.8225 109.547 50.9405 109.425C51.0584 109.303 51.1243 109.14 51.1243 108.97C51.1243 108.8 51.0584 108.637 50.9405 108.515C50.8225 108.393 50.6617 108.321 50.4921 108.315C50.3224 108.321 50.1616 108.393 50.0437 108.515C49.9257 108.637 49.8598 108.8 49.8598 108.97C49.8598 109.14 49.9257 109.303 50.0437 109.425C50.1616 109.547 50.3224 109.619 50.4921 109.625Z" fill="black"/>
<path d="M54.0528 110.148C54.2225 110.142 54.3832 110.071 54.5012 109.949C54.6191 109.827 54.6851 109.663 54.6851 109.494C54.6851 109.324 54.6191 109.161 54.5012 109.039C54.3832 108.916 54.2225 108.845 54.0528 108.839C53.8831 108.845 53.7224 108.916 53.6044 109.039C53.4865 109.161 53.4205 109.324 53.4205 109.494C53.4205 109.663 53.4865 109.827 53.6044 109.949C53.7224 110.071 53.8831 110.142 54.0528 110.148Z" fill="black"/>
<path d="M57.9277 110.358C58.0974 110.352 58.2581 110.28 58.3761 110.158C58.494 110.036 58.56 109.873 58.56 109.703C58.56 109.533 58.494 109.37 58.3761 109.248C58.2581 109.126 58.0974 109.054 57.9277 109.049C57.758 109.054 57.5973 109.126 57.4793 109.248C57.3614 109.37 57.2954 109.533 57.2954 109.703C57.2954 109.873 57.3614 110.036 57.4793 110.158C57.5973 110.28 57.758 110.352 57.9277 110.358Z" fill="black"/>
<path d="M61.1743 110.358C61.3439 110.352 61.5047 110.28 61.6226 110.158C61.7406 110.036 61.8065 109.873 61.8065 109.703C61.8065 109.533 61.7406 109.37 61.6226 109.248C61.5047 109.126 61.3439 109.054 61.1743 109.049C61.0046 109.054 60.8438 109.126 60.7259 109.248C60.6079 109.37 60.542 109.533 60.542 109.703C60.542 109.873 60.6079 110.036 60.7259 110.158C60.8438 110.28 61.0046 110.352 61.1743 110.358Z" fill="black"/>
</g>
<defs>
<clipPath id="clip0_240_1875">
<rect width="167" height="144" fill="white"/>
</clipPath>
</defs>
</svg>
