<svg width="10" height="11" viewBox="0 0 10 11" fill="none" xmlns="http://www.w3.org/2000/svg">
<path d="M9.81936 2.17083L8.94195 1.25292C8.82165 1.12697 8.67533 1.06396 8.50334 1.06396C8.3312 1.06396 8.18488 1.12697 8.06457 1.25292L3.83226 5.68732L1.93547 3.69621C1.81503 3.5702 1.6688 3.50727 1.49681 3.50727C1.32471 3.50727 1.17849 3.5702 1.05805 3.69621L0.180642 4.61414C0.0601989 4.74012 0 4.89314 0 5.07317C0 5.25305 0.0601989 5.40621 0.180642 5.53217L2.51608 7.97538L3.39355 8.89329C3.51393 9.01934 3.6602 9.08227 3.83226 9.08227C4.00424 9.08227 4.15052 9.01918 4.27096 8.89329L5.14841 7.97538L9.81936 3.08881C9.93969 2.96281 10 2.80981 10 2.62979C10.0001 2.44986 9.93969 2.29684 9.81936 2.17083Z" fill="white"/>
</svg>
