<svg width="98" height="32" viewBox="0 0 98 32" fill="none" xmlns="http://www.w3.org/2000/svg">
<path d="M10.296 24.792C9.568 25.0347 8.90933 25.156 8.32 25.156C7.436 25.156 6.74267 24.8353 6.24 24.194C5.75467 23.5353 5.356 22.608 5.044 21.412C4.97467 21.152 4.732 20.1987 4.316 18.552C3.50133 15.328 2.84267 12.9967 2.34 11.558C1.83733 10.102 1.10067 9.00133 0.13 8.256C0.338 7.736 0.676 7.32 1.144 7.008C1.62933 6.696 2.19267 6.54 2.834 6.54C3.47533 6.54 4.004 6.79133 4.42 7.294C4.836 7.77933 5.16533 8.37733 5.408 9.088C5.668 9.79867 5.89333 10.4833 6.084 11.142C6.27467 11.8007 6.474 12.6153 6.682 13.586C6.90733 14.5567 7.08067 15.3453 7.202 15.952C7.34067 16.5413 7.54867 17.564 7.826 19.02C8.12067 20.4587 8.33733 21.5073 8.476 22.166C11.388 14.574 12.844 9.504 12.844 6.956C12.844 6.73067 12.8353 6.566 12.818 6.462C13.078 6.41 13.3467 6.384 13.624 6.384C14.3173 6.384 14.8807 6.55733 15.314 6.904C15.7647 7.23333 15.99 7.71 15.99 8.334C15.99 9.20067 15.132 11.766 13.416 16.03C11.7173 20.2767 10.6773 23.1973 10.296 24.792ZM36.377 7.996L36.247 12.286C36.247 14.6433 36.3164 16.758 36.455 18.63C36.5937 20.4847 36.9057 22.504 37.391 24.688C37.0097 25 36.403 25.156 35.571 25.156C33.959 25.156 33.153 24.454 33.153 23.05C33.153 21.8887 33.205 20.112 33.309 17.72C33.4304 15.328 33.491 13.456 33.491 12.104C32.555 13.456 31.567 15.1287 30.527 17.122C29.5044 19.098 28.993 20.3113 28.993 20.762C28.993 21.2127 29.0364 21.5593 29.123 21.802C28.7417 22.0447 28.2304 22.166 27.589 22.166C26.965 22.166 26.4364 21.9927 26.003 21.646C25.587 21.2993 25.2317 20.8227 24.937 20.216C24.6597 19.6093 24.157 18.422 23.429 16.654C22.7184 14.8687 22.0684 13.3347 21.479 12.052C21.0284 14.8427 20.803 17.3127 20.803 19.462C20.803 21.6113 20.8724 23.3533 21.011 24.688C20.4564 24.896 19.9017 25 19.347 25C18.2377 25 17.683 24.4453 17.683 23.336C17.683 22.4867 17.8737 20.7967 18.255 18.266C18.6537 15.718 18.853 13.5687 18.853 11.818C18.853 10.0673 18.7577 8.42933 18.567 6.904C19.503 6.66133 20.231 6.54 20.751 6.54C21.7044 6.54 22.3457 6.878 22.675 7.554C23.195 8.646 23.9577 10.388 24.963 12.78C25.9857 15.1547 26.8177 16.9833 27.459 18.266C27.6324 17.902 28.031 17.122 28.655 15.926C29.2964 14.7127 29.825 13.6813 30.241 12.832C30.6744 11.9653 31.1077 10.9427 31.541 9.764C31.9917 8.568 32.2777 7.528 32.399 6.644C33.023 6.47067 33.6297 6.384 34.219 6.384C34.8257 6.384 35.337 6.514 35.753 6.774C36.169 7.034 36.377 7.44133 36.377 7.996Z" fill="#FC4442"/>
<path d="M51.829 21.412C52.037 21.88 52.141 22.4087 52.141 22.998C52.141 23.5873 51.933 24.0987 51.517 24.532C51.1183 24.948 50.6243 25.156 50.035 25.156C48.1976 25.156 45.3203 25.052 41.403 24.844C41.091 24.8267 40.8136 24.7313 40.571 24.558C40.3283 24.3673 40.207 24.1333 40.207 23.856C40.207 22.9373 40.2763 21.386 40.415 19.202C40.571 17.018 40.649 14.9813 40.649 13.092C40.649 11.1853 40.467 9.00133 40.103 6.54C41.3856 6.644 43.1103 6.696 45.277 6.696C47.4436 6.696 49.515 6.54 51.491 6.228C51.699 6.60933 51.803 7.06867 51.803 7.606C51.803 8.126 51.595 8.594 51.179 9.01C50.7803 9.40867 50.2776 9.608 49.671 9.608C49.0816 9.608 48.1283 9.52133 46.811 9.348C45.511 9.17467 44.549 9.088 43.925 9.088C43.7863 10.8387 43.7083 12.4853 43.691 14.028C44.783 14.132 45.953 14.184 47.201 14.184C48.4663 14.184 49.5496 14.002 50.451 13.638C50.659 14.0193 50.763 14.4787 50.763 15.016C50.763 15.536 50.555 16.0127 50.139 16.446C49.7403 16.862 49.255 17.07 48.683 17.07C48.1283 17.07 47.2963 16.966 46.187 16.758C45.0776 16.5327 44.237 16.42 43.665 16.42C43.665 19.1587 43.7256 21.1693 43.847 22.452C44.679 22.5213 45.329 22.556 45.797 22.556C48.085 22.556 50.0956 22.1747 51.829 21.412ZM54.6301 7.372C57.1261 6.71333 59.3014 6.384 61.1561 6.384C65.1254 6.384 67.1101 7.762 67.1101 10.518C67.1101 12.1993 66.3214 13.482 64.7441 14.366C65.8014 14.626 66.6767 15.1287 67.3701 15.874C68.0634 16.602 68.4101 17.5207 68.4101 18.63C68.4101 20.71 67.6387 22.322 66.0961 23.466C64.5534 24.5927 62.6467 25.156 60.3761 25.156C58.1054 25.156 56.1381 24.7053 54.4741 23.804C55.0114 21.932 55.2801 19.41 55.2801 16.238C55.2801 13.0487 55.0634 10.0933 54.6301 7.372ZM58.5561 22.348C59.3187 22.5907 60.0814 22.712 60.8441 22.712C62.0401 22.712 63.0281 22.4173 63.8081 21.828C64.5881 21.2213 64.9781 20.372 64.9781 19.28C64.9781 17.2 63.8514 16.16 61.5981 16.16C60.5234 16.16 59.4314 16.3853 58.3221 16.836C58.3221 18.5867 58.4001 20.424 58.5561 22.348ZM58.2961 14.548C58.5387 14.496 58.8941 14.4353 59.3621 14.366C59.8474 14.2967 60.2201 14.236 60.4801 14.184C60.7401 14.132 61.0607 14.054 61.4421 13.95C61.8407 13.846 62.1441 13.7247 62.3521 13.586C62.5774 13.43 62.8027 13.2393 63.0281 13.014C63.4614 12.5807 63.6781 11.948 63.6781 11.116C63.6781 9.504 62.7161 8.698 60.7921 8.698C60.1681 8.698 59.4054 8.802 58.5041 9.01C58.3654 12.5633 58.2961 14.4093 58.2961 14.548ZM82.7294 21.412C82.9374 21.88 83.0414 22.4087 83.0414 22.998C83.0414 23.5873 82.8334 24.0987 82.4174 24.532C82.0187 24.948 81.5247 25.156 80.9354 25.156C79.098 25.156 76.2207 25.052 72.3034 24.844C71.9914 24.8267 71.714 24.7313 71.4714 24.558C71.2287 24.3673 71.1074 24.1333 71.1074 23.856C71.1074 22.9373 71.1767 21.386 71.3154 19.202C71.4714 17.018 71.5494 14.9813 71.5494 13.092C71.5494 11.1853 71.3674 9.00133 71.0034 6.54C72.286 6.644 74.0107 6.696 76.1774 6.696C78.344 6.696 80.4154 6.54 82.3914 6.228C82.5994 6.60933 82.7034 7.06867 82.7034 7.606C82.7034 8.126 82.4954 8.594 82.0794 9.01C81.6807 9.40867 81.178 9.608 80.5714 9.608C79.982 9.608 79.0287 9.52133 77.7114 9.348C76.4114 9.17467 75.4494 9.088 74.8254 9.088C74.6867 10.8387 74.6087 12.4853 74.5914 14.028C75.6834 14.132 76.8534 14.184 78.1014 14.184C79.3667 14.184 80.45 14.002 81.3514 13.638C81.5594 14.0193 81.6634 14.4787 81.6634 15.016C81.6634 15.536 81.4554 16.0127 81.0394 16.446C80.6407 16.862 80.1554 17.07 79.5834 17.07C79.0287 17.07 78.1967 16.966 77.0874 16.758C75.978 16.5327 75.1374 16.42 74.5654 16.42C74.5654 19.1587 74.626 21.1693 74.7474 22.452C75.5794 22.5213 76.2294 22.556 76.6974 22.556C78.9854 22.556 80.996 22.1747 82.7294 21.412ZM85.3745 6.852C85.9291 6.644 86.5271 6.54 87.1685 6.54C88.7111 6.54 89.4825 7.242 89.4825 8.646C89.4825 9.40867 89.3958 10.6653 89.2225 12.416C89.0491 14.1493 88.9625 15.952 88.9625 17.824C88.9625 19.696 89.0231 21.2473 89.1445 22.478C89.6125 22.53 90.0805 22.556 90.5485 22.556C92.8365 22.556 94.8471 22.1747 96.5805 21.412C96.7885 21.88 96.8925 22.4087 96.8925 22.998C96.8925 23.5873 96.6845 24.0987 96.2685 24.532C95.8698 24.948 95.3758 25.156 94.7865 25.156C93.5558 25.156 90.8605 25.052 86.7005 24.844C86.3711 24.8267 86.0851 24.7313 85.8425 24.558C85.5998 24.3673 85.4785 24.1333 85.4785 23.856C85.4785 22.9373 85.5478 21.386 85.6865 19.202C85.8425 17.018 85.9205 15.0073 85.9205 13.17C85.9205 11.3153 85.7385 9.20933 85.3745 6.852Z" fill="#2D2D2D"/>
</svg>
